<?xml version="1.0" encoding="UTF-8"?><svg id="Capa_1" xmlns="http://www.w3.org/2000/svg" viewBox="0 0 512 425.43"><defs><style>.cls-1{fill:#fff;}</style></defs><path class="cls-1" d="M0,207.66c2.36-8.47,7.88-14.69,13.97-20.76C73.09,127.97,132.08,68.92,191.09,9.89c13.14-13.14,29.6-13.2,42.77-.09,5.31,5.29,10.77,10.45,15.81,15.99,9.93,10.93,10.63,26.33,.66,37.2-12.71,13.87-26.3,26.93-39.58,40.27-21.64,21.72-43.33,43.39-64.99,65.08-1.14,1.14-2.21,2.35-4.05,4.32,2.64,0,4.4,0,6.15,0,110.65,0,221.3,0,331.95,0,17.03,0,25.07,5.47,31.47,21.38,.1,.26,.47,.41,.72,.61v34c-1.89,4.04-3.24,8.46-5.78,12.03-6.03,8.45-14.63,12.02-25.02,12-44.14-.09-88.29-.04-132.43-.04-67.3,0-134.6,0-201.89,0-1.76,0-3.51,0-5.27,0l-.67,1.19c3.69,3.49,7.46,6.91,11.06,10.49,31.75,31.61,63.47,63.25,95.19,94.89,13.45,13.41,13.63,29.02,.38,42.63-5.46,5.61-10.88,11.29-16.75,16.44-10.82,9.49-26.21,9.61-36.8-.29-12.77-11.93-24.9-24.55-37.26-36.92-48.87-48.87-97.82-97.67-146.45-146.78C5.82,229.79,3.38,223.26,0,217.66c0-3.33,0-6.67,0-10Z"/></svg>